<?xml version="1.0" encoding="UTF-8"?>
<svg width="181px" height="34px" viewBox="0 0 181 34" version="1.1" xmlns="http://www.w3.org/2000/svg" xmlns:xlink="http://www.w3.org/1999/xlink">
    <!-- Generator: Sketch 43.1 (39012) - http://www.bohemiancoding.com/sketch -->
    <title>Group</title>
    <desc>Created with Sketch.</desc>
    <defs></defs>
    <g id="Page-1" stroke="none" stroke-width="1" fill="none" fill-rule="evenodd">
        <g id="I-LoveSlavic_Landing" transform="translate(-98.000000, -22.000000)">
            <g id="Group-3">
                <g id="logo" transform="translate(98.000000, 22.000000)">
                    <g id="Layer_1">
                        <g id="Group">
                            <path d="M39.1027229,0.134640197 C39.6984714,0.274010143 40.3040457,0.384173888 40.8899686,0.557873931 C45.4289314,1.90494595 48.1542743,5.78629648 47.7395257,10.9378606 C47.3309829,16.0100043 43.4503429,19.0274662 39.9073971,19.6059539 C35.8302429,20.2715479 32.1487029,19.5593265 29.3680257,16.2426292 C27.6650743,14.2110048 27.1939571,11.777667 27.34186,9.21059557 C27.58802,4.92906883 30.4871229,1.48786089 34.6811514,0.445148239 C35.1579571,0.326786263 35.6430371,0.237118099 36.12398,0.134640197 C37.1168943,0.134640197 38.1098086,0.134640197 39.1027229,0.134640197 L39.1027229,0.134640197 Z M43.1281629,10.1549294 C43.0650714,9.61282133 43.0319743,9.20495928 42.9678486,8.80222113 C42.6461857,6.7962162 41.5255371,5.36357513 39.6395171,4.63034575 C37.70954,3.8807199 35.7997314,4.05595711 34.1366,5.35127779 C32.1916257,6.86538878 31.7530886,8.9451778 32.1487029,11.2545173 C32.5681057,13.7006648 34.7313143,15.5734485 37.2741057,15.7353636 C39.9208429,15.9039397 42.02096,14.52305 42.7620257,12.0743405 C42.9616429,11.4154076 43.0247343,10.7159959 43.1281629,10.1549294 L43.1281629,10.1549294 Z" id="Shape" fill="#000000"></path>
                            <path d="M95.5747229,0.134640197 C96.1777114,0.261200406 96.7894914,0.357017244 97.38162,0.521494276 C98.4484857,0.817655412 99.41244,1.31006173 100.240903,2.1708761 C99.82874,2.74321519 99.4258857,3.30223214 98.9940714,3.90172787 C98.7629086,3.72597826 98.5607057,3.56355079 98.3491943,3.41290827 C96.9348086,2.40606289 95.3751057,2.13500884 93.7026657,2.57515143 C92.6487286,2.85286654 91.91904,3.48720475 91.6935657,4.59755282 C91.4634371,5.72993363 91.79958,6.69271352 92.7019943,7.38443936 C93.29826,7.8414908 93.9933,8.18632894 94.6764457,8.51425822 C95.91914,9.11016722 97.2228571,9.5897638 98.43504,10.2384489 C100.08576,11.1218084 100.966454,12.5488132 101.016617,14.4303075 C101.079191,16.7724399 99.6379143,18.6882643 97.2026886,19.4230309 C94.8284857,20.138839 92.5287514,19.8570248 90.3934686,18.6278023 C89.7217,18.2409483 89.1916286,17.611734 88.5472686,17.0496427 C89.0892343,16.4096682 89.5210486,15.8998406 90.0831829,15.2352714 C90.2497029,15.4725078 90.3546829,15.705645 90.5305114,15.860899 C92.1962286,17.3370932 94.1065543,17.9611836 96.3069971,17.3411923 C97.40334,17.0322214 98.2152543,16.3609912 98.4417629,15.1814705 C98.6843029,13.9204799 98.2468,12.8823788 97.1757971,12.2101238 C96.2578686,11.6336856 95.24582,11.2043031 94.2710057,10.7170207 C93.3323914,10.2481843 92.3456829,9.8582559 91.4572314,9.31102391 C89.6218914,8.18069265 88.8508314,6.47955948 89.1968,4.37722533 C89.5546629,2.20110709 90.9830114,0.950364295 93.0758886,0.385198667 C93.4497829,0.284257934 93.8319514,0.216110129 94.2105,0.132590639 C94.6645514,0.134640197 95.1196371,0.134640197 95.5747229,0.134640197 L95.5747229,0.134640197 Z" id="Shape" fill="#000000"></path>
                            <path d="M175.628437,0.134640197 C176.271763,0.259150848 176.920777,0.360091581 177.556863,0.513296044 C178.673374,0.782300536 179.688526,1.26343428 180.591974,2.04329112 C180.241869,2.61409303 179.901589,3.16901087 179.619229,3.62862426 C178.542537,3.24945602 177.549623,2.77703289 176.502409,2.55158151 C171.770034,1.53397595 167.79062,4.69439444 167.662369,9.49292219 C167.625651,10.8604898 167.755454,12.1942397 168.321726,13.4542055 C169.714391,16.5516001 172.744849,17.8213013 175.824951,17.5430738 C177.56462,17.3857702 177.93386,17.1956737 180.022083,15.9495424 C180.335989,16.456808 180.650411,16.9650984 180.964834,17.4733888 L180.964834,17.7193357 C177.527386,20.7603675 170.643697,20.5082718 167.388283,16.6346072 C165.78876,14.7315925 165.160949,12.5139707 165.145434,10.0954922 C165.124749,6.80646399 166.211783,3.99498276 168.902477,1.92902826 C170.20878,0.925769599 171.719354,0.417991595 173.356111,0.254539342 C173.536594,0.236605709 173.711906,0.175631358 173.889803,0.134640197 C174.470037,0.134640197 175.049237,0.134640197 175.628437,0.134640197 L175.628437,0.134640197 Z" id="Shape" fill="#000000"></path>
                            <path d="M68.3621486,32.0498455 C68.5757286,32.103134 68.78724,32.1917774 69.0028886,32.2045872 C72.8411229,32.4300385 76.6798743,32.6426802 80.5181086,32.868644 C81.0838629,32.9019493 81.6470314,32.9885431 82.2112343,33.0505422 C82.2148543,33.1227892 82.2189914,33.1950361 82.2231286,33.2667706 C81.2746886,33.4112645 80.3267657,33.6720707 79.3772914,33.6766822 C77.20736,33.6874424 75.0374286,33.5578079 72.86698,33.5152795 C71.4019143,33.4865857 69.9363314,33.5096432 68.4743686,33.5096432 C68.4117943,33.1873502 68.37818,33.0126254 68.3399114,32.8133059 C68.23338,32.796397 68.13564,32.7677032 68.0373829,32.7666785 C62.1869457,32.6882829 56.3365086,32.5765819 50.4855543,32.5499377 C47.0139743,32.5340536 43.5418771,32.6498536 40.06978,32.7185138 C39.9156714,32.7215882 39.7636314,32.8409749 39.6105571,32.9060484 C39.6250371,32.9670228 39.6400343,33.0279971 39.6545143,33.0889715 L57.3014971,33.0889715 C57.3025314,33.1376485 57.3035657,33.1863255 57.3046,33.2355149 C56.9963829,33.2355149 56.6881657,33.2339777 56.3799486,33.2355149 C46.0805314,33.2923901 35.7811143,33.3262078 25.4822143,33.4209999 C22.5195029,33.4481565 19.5821314,33.2759936 16.64476,32.9244944 C15.3772429,32.7728271 14.0905914,32.7764139 12.8018714,32.7087784 C12.74602,32.4090306 12.7010286,32.1113323 12.6332829,31.8192703 C12.4827943,31.175709 12.6327657,30.8698125 13.2967771,30.7827063 C14.1309286,30.6730549 14.9774914,30.6571708 15.8824914,30.5967089 C15.8897314,30.442992 15.89904,30.2523831 15.9083486,30.0551132 C15.12436,29.868091 14.3755371,29.7235972 13.6489514,29.5058316 C13.0588914,29.3290572 12.4750371,29.105143 11.9268657,28.8274279 C11.4412686,28.5814809 10.8450029,28.3104269 10.9163686,27.642271 C10.9841143,27.006908 11.5969286,26.830646 12.1057971,26.7230442 C13.1318086,26.5047663 14.1754029,26.2542078 15.2158943,26.2367866 C20.3837029,26.1507051 25.5525457,26.1527547 30.7208714,26.0917803 C35.9522886,26.0297812 41.1826714,25.8668413 46.4140886,25.8709404 C49.5329771,25.8735024 52.6518657,26.1271352 55.7717886,26.2419104 C59.28474,26.3710326 62.7992429,26.4535273 66.3121943,26.5898229 C68.2737171,26.666169 70.23162,26.858315 72.19366,26.9136531 C74.3010171,26.9725779 76.4114771,26.9028929 78.5188343,26.9469584 C79.5851829,26.9689912 80.6525657,27.092477 81.7121914,27.2272355 C82.0757429,27.2733505 82.4361914,27.4808683 82.2577771,27.9973569 L72.2753686,27.9973569 C72.2753686,28.0019684 72.2748514,28.0065799 72.2743343,28.0111914 C75.5132,28.1449251 78.7525829,28.2781464 82.0473,28.414442 C82.0302343,28.560473 82.0266143,28.6726863 82.00386,28.7813129 C81.9087057,29.2270917 82.06178,29.4197502 82.5463429,29.4177006 C83.3437771,29.4136015 84.1474171,29.3121484 84.9138229,29.7056635 C86.0939429,30.3123327 86.1968543,31.0404382 85.1310229,31.8274685 C84.46546,32.31885 83.7616286,32.6324324 82.8535257,32.5929784 C78.28974,32.3931465 73.7228514,32.2624872 69.1575143,32.105696 C68.8906686,32.096473 68.6253743,32.0688039 68.3585286,32.0498455 C62.8437171,31.8233694 57.3304571,31.5333569 51.8084057,31.8115844 C56.6235229,31.9181614 61.43864,32.017565 66.2542743,32.1041588 C66.9575886,32.1169686 67.6603857,32.0693163 68.3621486,32.0498455 L68.3621486,32.0498455 Z" id="Shape" fill="#ED2124"></path>
                            <path d="M80.1617971,15.3766909 L80.1617971,19.4752946 L68.5503886,19.4752946 L68.5503886,0.481527895 L79.8871943,0.481527895 L79.8871943,4.54118997 L72.9517914,4.54118997 L72.9517914,7.86147399 L79.0199457,7.86147399 L79.0199457,11.9641768 L72.9611,11.9641768 L72.9611,15.3766909 L80.1617971,15.3766909 L80.1617971,15.3766909 Z" id="Shape" fill="#000000"></path>
                            <path d="M57.2839143,12.9597496 C58.1594371,10.5756012 58.9961743,8.29598029 59.8339457,6.01687176 C60.4477943,4.34648196 61.08388,2.68429039 61.6635971,1.00211564 C61.8218429,0.543014636 62.0473171,0.419016374 62.5070571,0.430288944 C63.7430286,0.460007535 64.9795171,0.440536734 66.2837514,0.440536734 C66.21342,0.677260687 66.1761857,0.848911172 66.11206,1.01031387 C63.7611286,6.98887466 61.4029571,12.9643611 59.0659886,18.9480458 C58.88654,19.4066344 58.65848,19.5726486 58.1651257,19.5403681 C57.4649143,19.4947654 56.75798,19.5014265 56.0572514,19.5388309 C55.5938914,19.5634256 55.3772086,19.4117583 55.2008629,18.9716157 C52.9962829,13.4618913 50.7673971,7.96190233 48.5452343,2.4593514 C48.2876971,1.82091407 48.0353314,1.18093957 47.7415943,0.44463585 C49.2945743,0.44463585 50.7544686,0.429776554 52.2128114,0.466668599 C52.3627829,0.470255325 52.5644686,0.762829735 52.6410057,0.959587306 C54.0124686,4.48687668 55.3679,8.02031474 56.7279857,11.5517032 C56.8965743,11.9882591 57.0713686,12.422253 57.2839143,12.9597496 L57.2839143,12.9597496 Z" id="Shape" fill="#000000"></path>
                            <path d="M18.7924543,15.3884759 L26.5723514,15.3884759 C26.6038971,15.5524405 26.65044,15.6851494 26.6509571,15.8178583 C26.6571629,16.8831161 26.6519914,17.9478615 26.6566457,19.0131193 C26.6581971,19.3005698 26.6566457,19.5342194 26.2496543,19.5326822 C22.3633257,19.5203849 18.4769971,19.5198725 14.5911857,19.5137238 C14.5539514,19.5137238 14.5172343,19.48503 14.4438,19.454799 L14.4438,0.476916389 L18.7924543,0.476916389 L18.7924543,15.3884759 L18.7924543,15.3884759 Z" id="Shape" fill="#000000"></path>
                            <path d="M138.046631,19.5280707 C137.260057,19.5280707 136.575877,19.5608636 135.899454,19.5070627 C135.704491,19.4916911 135.445403,19.2636777 135.359557,19.0705069 C134.652106,17.4810746 133.96896,15.8813946 133.302363,14.2750535 C133.149289,13.9056206 132.968289,13.7478047 132.536474,13.7513914 C129.97248,13.7749613 127.408486,13.771887 124.845009,13.7539533 C124.452497,13.7513914 124.261671,13.8748773 124.115837,14.2330375 C123.457514,15.842453 122.76144,17.4370091 122.100531,19.0453998 C121.957283,19.3927999 121.783523,19.5634256 121.3786,19.5383185 C120.787506,19.5014265 120.192791,19.5285831 119.52516,19.5285831 C119.637897,19.2288352 119.712883,19.0028715 119.806486,18.7845935 C122.360654,12.8659823 124.924131,6.95147022 127.4602,1.02517316 C127.676366,0.520469497 127.908563,0.30885263 128.488797,0.331397768 C129.79872,0.38212433 129.801306,0.345744675 130.303969,1.51040603 C132.79246,7.27888712 135.280434,13.0478806 137.767374,18.8168741 C137.854254,19.0192679 137.928723,19.2262733 138.046631,19.5280707 L138.046631,19.5280707 Z M132.138791,11.5276209 C131.000043,8.84936096 129.888186,6.23566208 128.711169,3.46773395 C127.530014,6.25205854 126.420226,8.86678221 125.29182,11.5276209 L132.138791,11.5276209 L132.138791,11.5276209 Z" id="Shape" fill="#000000"></path>
                            <path d="M136.7274,0.441561513 C137.529489,0.441561513 138.214703,0.395446457 138.886989,0.468205767 C139.103154,0.491775685 139.369483,0.795110274 139.468257,1.02978467 C141.232231,5.21600696 142.973451,9.41196464 144.720877,13.604848 C145.04978,14.3939278 145.383854,15.1804457 145.758783,16.0704663 C146.933214,13.1723912 148.061103,10.3896038 149.188474,7.60630401 C150.086751,5.38714505 150.994854,3.17208521 151.872963,0.9452404 C152.026037,0.557873931 152.220483,0.403644689 152.641954,0.430801333 C153.212363,0.467180988 153.786909,0.440024344 154.430751,0.440024344 C154.351629,0.689558035 154.310257,0.861208521 154.243546,1.02261122 C151.762811,7.03806405 149.275871,13.0509549 146.80548,19.0710193 C146.631203,19.4957902 146.4109,19.6530938 145.941334,19.6392592 C144.81448,19.6074911 144.811894,19.6331106 144.389389,18.6308767 C143.12394,15.6333981 141.860043,12.6348947 140.594077,9.63741603 C139.392237,6.79057992 138.187294,3.94528097 136.98442,1.09844486 C136.906849,0.916034198 136.839103,0.729012027 136.7274,0.441561513 L136.7274,0.441561513 Z" id="Shape" fill="#000000"></path>
                            <path d="M107.59364,17.3094241 L117.007709,17.3094241 L117.007709,19.4752946 L105.298043,19.4752946 L105.298043,0.484602232 L107.59364,0.484602232 C107.59364,6.08553195 107.59364,11.6511068 107.59364,17.3094241 L107.59364,17.3094241 Z" id="Shape" fill="#000000"></path>
                            <path d="M158.062646,0.473329662 L160.323594,0.473329662 L160.323594,19.4865672 L158.062646,19.4865672 L158.062646,0.473329662 L158.062646,0.473329662 Z" id="Shape" fill="#000000"></path>
                            <path d="M0.0377514286,0.482040284 L2.33386571,0.482040284 L2.33386571,19.4778565 L0.0377514286,19.4778565 L0.0377514286,0.482040284 L0.0377514286,0.482040284 Z" id="Shape" fill="#000000"></path>
                            <path d="M68.3621486,32.0498455 C67.6603857,32.0693163 66.9575886,32.1164562 66.2558257,32.1036464 C61.4401914,32.0170526 56.6250743,31.9181614 51.8099571,31.811072 C57.3320086,31.5328445 62.8452686,31.822857 68.36008,32.0493331 C68.3605971,32.0498455 68.3621486,32.0498455 68.3621486,32.0498455 L68.3621486,32.0498455 Z" id="Shape" fill="#FFFFFF"></path>
                        </g>
                    </g>
                </g>
            </g>
        </g>
    </g>
</svg>