<?xml version="1.0" encoding="UTF-8"?>
<svg width="152px" height="45px" viewBox="0 0 152 45" version="1.1" xmlns="http://www.w3.org/2000/svg" xmlns:xlink="http://www.w3.org/1999/xlink">
    <!-- Generator: Sketch 43.1 (39012) - http://www.bohemiancoding.com/sketch -->
    <title>logo</title>
    <desc>Created with Sketch.</desc>
    <defs>
        <filter x="-1.5%" y="-8.4%" width="103.0%" height="116.0%" filterUnits="objectBoundingBox" id="filter-1">
            <feOffset dx="0" dy="-2" in="SourceAlpha" result="shadowOffsetOuter1"></feOffset>
            <feGaussianBlur stdDeviation="5" in="shadowOffsetOuter1" result="shadowBlurOuter1"></feGaussianBlur>
            <feColorMatrix values="0 0 0 0 0.149899022   0 0 0 0 0.148290257   0 0 0 0 0.148290257  0 0 0 0.038524683 0" type="matrix" in="shadowBlurOuter1" result="shadowMatrixOuter1"></feColorMatrix>
            <feMerge>
                <feMergeNode in="shadowMatrixOuter1"></feMergeNode>
                <feMergeNode in="SourceGraphic"></feMergeNode>
            </feMerge>
        </filter>
    </defs>
    <g id="Page-1" stroke="none" stroke-width="1" fill="none" fill-rule="evenodd">
        <g id="I-LoveSlavic_Landing" transform="translate(-83.000000, -1368.000000)" fill="#505050">
            <g id="footer" filter="url(#filter-1)" transform="translate(0.000000, 1193.000000)">
                <g id="logo" transform="translate(93.000000, 187.000000)">
                    <g id="Layer_1">
                        <g id="Group">
                            <path d="M28.73294,0.0990001449 C29.1707,0.201478047 29.61568,0.2824808 30.04622,0.41020142 C33.38148,1.40069555 35.38408,4.25462976 35.07932,8.04254456 C34.77912,11.772062 31.9276,13.9907839 29.32422,14.4161426 C26.3283,14.9055499 23.62308,14.3818577 21.57982,11.9431097 C20.32848,10.4492682 19.9823,8.66004927 20.09098,6.77249674 C20.27186,3.62431532 22.40214,1.09401536 25.48394,0.327314882 C25.8343,0.240284017 26.19074,0.174351543 26.54414,0.0990001449 C27.27374,0.0990001449 28.00334,0.0990001449 28.73294,0.0990001449 L28.73294,0.0990001449 Z M31.69086,7.46685988 C31.6445,7.06825098 31.62018,6.76835241 31.57306,6.47222142 C31.3367,4.99721779 30.51324,3.94380525 29.12738,3.40466599 C27.70922,2.85347051 26.30588,2.9823214 25.0838,3.93476308 C23.65462,5.04807999 23.33238,6.57733662 23.62308,8.27538038 C23.93126,10.0740183 25.5208,11.4510651 27.38926,11.5701203 C29.3341,11.6940733 30.87728,10.6787132 31.42182,8.87819157 C31.5685,8.39368208 31.61486,7.87940878 31.69086,7.46685988 L31.69086,7.46685988 Z" id="Shape"></path>
                            <path d="M70.22894,0.0990001449 C70.67202,0.192059122 71.12156,0.262512679 71.55666,0.383451674 C72.3406,0.601217215 73.04892,0.963280684 73.65768,1.59623243 C73.35482,2.01706999 73.0588,2.42811187 72.7415,2.86891755 C72.57164,2.7396899 72.42306,2.62025793 72.26764,2.50949138 C71.22834,1.76916389 70.08226,1.56985944 68.85334,1.8934937 C68.0789,2.09769599 67.54272,2.56412114 67.37704,3.38055354 C67.20794,4.21318649 67.45494,4.92111288 68.11804,5.42973482 C68.55618,5.76580206 69.0669,6.01935951 69.56888,6.26048399 C70.48202,6.69865237 71.44,7.05129691 72.33072,7.52827127 C73.54368,8.17780032 74.19082,9.22706854 74.22768,10.6105202 C74.27366,12.3326764 73.2146,13.7413708 71.42518,14.2816403 C69.6806,14.8079699 67.99074,14.6007535 66.42172,13.6969135 C65.9281,13.412462 65.5386,12.9498044 65.06512,12.536502 C65.46336,12.0659325 65.78066,11.6910593 66.19372,11.2024054 C66.31608,11.3768439 66.39322,11.5482684 66.52242,11.6624257 C67.7464,12.7478626 69.15012,13.2067526 70.76702,12.7508767 C71.57262,12.5236922 72.16922,12.0301406 72.33566,11.162846 C72.51388,10.235647 72.1924,9.47233734 71.40542,8.97803217 C70.73092,8.55418055 69.98726,8.23845819 69.27096,7.8801623 C68.58126,7.53542965 67.85622,7.24871758 67.20338,6.84634111 C65.85476,6.01521519 65.28818,4.76438197 65.5424,3.21854804 C65.80536,1.61846109 66.85492,0.698797276 68.39278,0.283234314 C68.66752,0.209013186 68.94834,0.158904507 69.2265,0.0974931169 C69.56014,0.0990001449 69.89454,0.0990001449 70.22894,0.0990001449 L70.22894,0.0990001449 Z" id="Shape"></path>
                            <path d="M129.05294,0.0990001449 C129.52566,0.190552094 130.00256,0.264773221 130.46996,0.377423562 C131.29038,0.575220982 132.03632,0.928995798 132.70018,1.50241994 C132.44292,1.92212723 132.19288,2.33015505 131.9854,2.66810607 C131.19424,2.3893059 130.46464,2.04193595 129.69514,1.87616287 C126.21776,1.12792349 123.29366,3.45176061 123.19942,6.98008984 C123.17244,7.98565425 123.26782,8.9663527 123.68392,9.89279815 C124.70726,12.1702942 126.93406,13.103898 129.19734,12.8993189 C130.47566,12.7836545 130.74698,12.6438777 132.28142,11.7276047 C132.51208,12.1005941 132.74312,12.4743371 132.97416,12.84808 L132.97416,13.0289233 C130.4483,15.2649761 125.39012,15.0796117 122.99802,12.2313288 C121.82268,10.8320533 121.36136,9.20144907 121.34996,7.42315606 C121.33476,5.00475293 122.13352,2.93748732 124.11066,1.41840313 C125.07054,0.68071294 126.18052,0.307346761 127.38322,0.187161281 C127.51584,0.173974786 127.64466,0.129140704 127.77538,0.0990001449 C128.20174,0.0990001449 128.62734,0.0990001449 129.05294,0.0990001449 L129.05294,0.0990001449 Z" id="Shape"></path>
                            <path d="M50.23296,23.5660629 C50.3899,23.6052456 50.54532,23.6704246 50.70378,23.6798435 C53.52414,23.8456166 56.34488,24.0019707 59.16524,24.1681206 C59.58096,24.1926098 59.99478,24.2562817 60.40936,24.3018693 C60.41202,24.354992 60.41506,24.4081148 60.4181,24.4608607 C59.72118,24.5671062 59.02464,24.7588755 58.32696,24.7622663 C56.73248,24.7701782 55.138,24.6748587 53.54314,24.6435879 C52.4666,24.6224895 51.38968,24.6394436 50.31542,24.6394436 C50.26944,24.4024634 50.24474,24.2739893 50.21662,24.1274308 C50.13834,24.1149978 50.06652,24.0938994 49.99432,24.0931459 C45.69538,24.0355021 41.39644,23.9533691 37.09712,23.9337777 C34.54618,23.9220982 31.99486,24.0072453 29.44354,24.0577308 C29.3303,24.0599913 29.21858,24.1477757 29.1061,24.1956238 C29.11674,24.2404579 29.12776,24.285292 29.1384,24.3301261 L42.10552,24.3301261 C42.10628,24.365918 42.10704,24.4017099 42.1078,24.4378786 C41.88132,24.4378786 41.65484,24.4367483 41.42836,24.4378786 C33.86028,24.4796986 26.2922,24.5045646 18.7245,24.5742646 C16.54748,24.5942327 14.38908,24.4676424 12.23068,24.2091871 C11.2993,24.097667 10.35386,24.1003043 9.4069,24.0505724 C9.36586,23.8301695 9.3328,23.6112737 9.28302,23.3965222 C9.17244,22.9233155 9.28264,22.6983915 9.77056,22.6343428 C10.3835,22.5537169 11.00556,22.5420374 11.67056,22.4975801 C11.67588,22.384553 11.68272,22.2443994 11.68956,22.0993479 C11.11348,21.9618316 10.56324,21.8555861 10.02934,21.6954644 C9.59576,21.5654833 9.16674,21.4008405 8.76394,21.1966382 C8.40712,21.0157948 7.96898,20.8164904 8.02142,20.3251992 C8.0712,19.8580206 8.5215,19.7284162 8.89542,19.6492972 C9.64934,19.4887987 10.41618,19.3045646 11.18074,19.2917548 C14.97808,19.2284596 18.77618,19.2299667 22.5739,19.1851326 C26.41798,19.139545 30.2613,19.0197363 34.10538,19.0227503 C36.39716,19.0246341 38.68894,19.2111288 40.98148,19.2955224 C43.56282,19.3904651 46.1453,19.451123 48.72664,19.5513404 C50.16798,19.6074772 51.60666,19.748761 53.04838,19.7894508 C54.59688,19.8327779 56.14766,19.7815389 57.69616,19.81394 C58.47972,19.8301406 59.26404,19.920939 60.04266,20.0200261 C60.3098,20.0539342 60.57466,20.2065208 60.44356,20.5862918 L53.10842,20.5862918 C53.10842,20.5896827 53.10804,20.5930735 53.10766,20.5964643 C55.4876,20.6947979 57.86792,20.7927547 60.2889,20.892972 C60.27636,21.0003478 60.2737,21.0828576 60.25698,21.16273 C60.18706,21.4905086 60.29954,21.6321693 60.6556,21.6306622 C61.24156,21.6276482 61.83208,21.5530503 62.39524,21.8423997 C63.2624,22.2884799 63.33802,22.8238516 62.55484,23.4025504 C62.06578,23.7638603 61.5486,23.9944356 60.88132,23.9654253 C57.52782,23.8184901 54.17204,23.722417 50.8174,23.6071294 C50.62132,23.6003478 50.42638,23.5800029 50.2303,23.5660629 C46.17798,23.3995363 42.1268,23.1862918 38.06916,23.3908709 C41.60734,23.4692363 45.14552,23.5423272 48.68408,23.6059991 C49.20088,23.6154181 49.7173,23.5803797 50.23296,23.5660629 L50.23296,23.5660629 Z" id="Shape"></path>
                            <path d="M58.90342,11.3063904 L58.90342,14.3200696 L50.37128,14.3200696 L50.37128,0.354064628 L58.70164,0.354064628 L58.70164,3.33911027 L53.60546,3.33911027 L53.60546,5.78049558 L58.06438,5.78049558 L58.06438,8.79718881 L53.6123,8.79718881 L53.6123,11.3063904 L58.90342,11.3063904 L58.90342,11.3063904 Z" id="Shape"></path>
                            <path d="M42.0926,9.52922765 C42.73594,7.77617737 43.35078,6.09998551 43.96638,4.42417041 C44.41744,3.19594262 44.88484,1.97374294 45.31082,0.736849732 C45.4271,0.399275467 45.59278,0.308100275 45.9306,0.316388929 C46.8388,0.338240835 47.74738,0.323924069 48.70574,0.323924069 C48.65406,0.497985799 48.6267,0.624199391 48.57958,0.742877844 C46.8521,5.13887842 45.1193,9.53261846 43.40208,13.9323866 C43.27022,14.2695841 43.10264,14.3916534 42.74012,14.3679177 C42.2256,14.3343863 41.70614,14.3392842 41.19124,14.3667874 C40.85076,14.3848718 40.69154,14.2733517 40.56196,13.9497174 C38.94202,9.8984495 37.30422,5.85433995 35.67136,1.80834662 C35.48212,1.3389074 35.29668,0.868337922 35.08084,0.326938125 C36.22198,0.326938125 37.29472,0.316012172 38.36632,0.343138676 C38.47652,0.345775974 38.62472,0.560904217 38.68096,0.705578902 C39.68872,3.29917403 40.6847,5.89729025 41.6841,8.49389943 C41.80798,8.81489639 41.93642,9.13400956 42.0926,9.52922765 L42.0926,9.52922765 Z" id="Shape"></path>
                            <path d="M13.80882,11.3150558 L19.52554,11.3150558 C19.54872,11.435618 19.58292,11.5331981 19.5833,11.6307781 C19.58786,12.4140559 19.58406,13.196957 19.58748,13.9802347 C19.58862,14.1915954 19.58748,14.3633966 19.28842,14.3622663 C16.43272,14.3532242 13.57702,14.3528474 10.7217,14.3483263 C10.69434,14.3483263 10.66736,14.3272279 10.6134,14.3049993 L10.6134,0.350673815 L13.80882,0.350673815 L13.80882,11.3150558 L13.80882,11.3150558 Z" id="Shape"></path>
                            <path d="M101.43758,14.3588755 C100.8596,14.3588755 100.35686,14.382988 99.85982,14.3434285 C99.71656,14.3321258 99.52618,14.1644689 99.4631,14.0224315 C98.94326,12.8537313 98.44128,11.677496 97.95146,10.4963628 C97.83898,10.2247211 97.70598,10.1086799 97.38868,10.1113172 C95.50464,10.128648 93.6206,10.1263875 91.73694,10.113201 C91.44852,10.1113172 91.3083,10.2021156 91.20114,10.4654688 C90.7174,11.6488625 90.20592,12.8213302 89.72028,14.0039704 C89.61502,14.2594117 89.48734,14.3848718 89.1898,14.3664107 C88.75546,14.3392842 88.31846,14.3592523 87.82788,14.3592523 C87.91072,14.1388494 87.96582,13.9726996 88.0346,13.8122011 C89.91142,9.46028112 91.79508,5.11137516 93.6586,0.753803797 C93.81744,0.38269816 93.98806,0.227097522 94.41442,0.24367483 C95.37696,0.280973772 95.37886,0.254224026 95.74822,1.11059267 C97.57678,5.35212288 99.40496,9.59402985 101.23238,13.8359368 C101.29622,13.9847558 101.35094,14.1369657 101.43758,14.3588755 L101.43758,14.3588755 Z M97.09646,8.47619186 C96.2597,6.50688306 95.4427,4.58504565 94.57782,2.54980438 C93.7099,4.59710187 92.89442,6.5196928 92.06526,8.47619186 L97.09646,8.47619186 L97.09646,8.47619186 Z" id="Shape"></path>
                            <path d="M100.4682,0.324677583 C101.05758,0.324677583 101.56108,0.290769454 102.05508,0.344268947 C102.21392,0.361599768 102.40962,0.584639907 102.4822,0.757194609 C103.77838,3.83529923 105.05784,6.92056224 106.34186,10.0035647 C106.58354,10.5837705 106.82902,11.1620925 107.10452,11.8165193 C107.9675,9.6855818 108.79628,7.63941458 109.62468,5.5928706 C110.28474,3.96113607 110.95202,2.33241559 111.59726,0.695029706 C111.70974,0.41020142 111.85262,0.296797566 112.16232,0.316765686 C112.58146,0.343515433 113.00364,0.323547312 113.47674,0.323547312 C113.4186,0.507027967 113.3882,0.633241559 113.33918,0.751920012 C111.51632,5.17504709 109.6889,9.59629039 107.87364,14.0228083 C107.74558,14.3351398 107.5837,14.4508042 107.23866,14.4406318 C106.41064,14.4172729 106.40874,14.4361107 106.09828,13.699174 C105.16842,11.4951456 104.2397,9.29036372 103.30946,7.08633531 C102.42634,4.99307347 101.54094,2.90094189 100.65706,0.807680046 C100.60006,0.673554557 100.55028,0.536038255 100.4682,0.324677583 L100.4682,0.324677583 Z" id="Shape"></path>
                            <path d="M79.06052,12.7275178 L85.97804,12.7275178 L85.97804,14.3200696 L77.3737,14.3200696 L77.3737,0.35632517 L79.06052,0.35632517 C79.06052,4.47465585 79.06052,8.56699029 79.06052,12.7275178 L79.06052,12.7275178 Z" id="Shape"></path>
                            <path d="M116.14548,0.348036516 L117.80684,0.348036516 L117.80684,14.3283582 L116.14548,14.3283582 L116.14548,0.348036516 L116.14548,0.348036516 Z" id="Shape"></path>
                            <path d="M0.02774,0.354441385 L1.71494,0.354441385 L1.71494,14.3219533 L0.02774,14.3219533 L0.02774,0.354441385 L0.02774,0.354441385 Z" id="Shape"></path>
                            <path d="M50.23296,23.5660629 C49.7173,23.5803797 49.20088,23.6150413 48.68522,23.6056224 C45.14666,23.5419504 41.60848,23.4692363 38.0703,23.3904941 C42.12794,23.1859151 46.17912,23.3991595 50.23144,23.5656861 C50.23182,23.5660629 50.23296,23.5660629 50.23296,23.5660629 L50.23296,23.5660629 Z" id="Shape"></path>
                        </g>
                    </g>
                </g>
            </g>
        </g>
    </g>
</svg>