<?xml version="1.0" encoding="UTF-8"?>
<svg width="179px" height="10px" viewBox="0 0 179 10" version="1.1" xmlns="http://www.w3.org/2000/svg" xmlns:xlink="http://www.w3.org/1999/xlink">
    <!-- Generator: Sketch 39.1 (31720) - http://www.bohemiancoding.com/sketch -->
    <title>INTERNATIONAL DATING</title>
    <desc>Created with Sketch.</desc>
    <defs>
        <linearGradient x1="0%" y1="0%" x2="99.1824758%" y2="98.2100995%" id="linearGradient-1">
            <stop stop-color="#3CB2EC" offset="0%"></stop>
            <stop stop-color="#5380FD" offset="100%"></stop>
        </linearGradient>
    </defs>
    <g id="Page-1" stroke="none" stroke-width="1" fill="none" fill-rule="evenodd">
        <g id="Catalog_girls" transform="translate(-550.000000, -313.000000)" fill="url(#linearGradient-1)">
            <g id="Group-9" transform="translate(239.000000, 240.000000)">
                <path d="M314.759766,82 L311.789551,82 L311.789551,73.7070312 L314.759766,73.7070312 L314.759766,82 Z M324.465332,82 L321.430664,82 L319.083496,78.3369141 L319.083496,82 L316.312012,82 L316.312012,73.7070312 L319.352051,73.7070312 L321.693848,77.3701172 L321.693848,73.7070312 L324.465332,73.7070312 L324.465332,82 Z M331.82373,76.1132812 L330.072754,76.1132812 L330.072754,82 L327.102539,82 L327.102539,76.1132812 L325.356934,76.1132812 L325.356934,73.7070312 L331.82373,73.7070312 L331.82373,76.1132812 Z M338.45166,82 L332.709961,82 L332.709961,73.7070312 L338.45166,73.7070312 L338.45166,76.0166016 L335.680176,76.0166016 L335.680176,76.784668 L338.199219,76.784668 L338.199219,78.8632812 L335.680176,78.8632812 L335.680176,79.6904297 L338.45166,79.6904297 L338.45166,82 Z M347.287109,82 L343.876465,82 L342.77002,79.2070312 L342.678711,79.1855469 L342.678711,82 L339.740723,82 L339.740723,73.7070312 L343.505859,73.7070312 C344.519211,73.7070312 345.317705,73.9344053 345.901367,74.3891602 C346.53874,74.8904647 346.857422,75.6298779 346.857422,76.6074219 C346.857422,77.6422578 346.377609,78.340493 345.417969,78.7021484 L347.287109,82 Z M343.876465,76.6450195 C343.876465,76.4051095 343.79769,76.2144376 343.640137,76.072998 C343.482584,75.9315585 343.273113,75.8608398 343.011719,75.8608398 L342.678711,75.8608398 L342.678711,77.4345703 L343.011719,77.4345703 C343.588219,77.4345703 343.876465,77.1713894 343.876465,76.6450195 L343.876465,76.6450195 Z M356.101074,82 L353.066406,82 L350.719238,78.3369141 L350.719238,82 L347.947754,82 L347.947754,73.7070312 L350.987793,73.7070312 L353.32959,77.3701172 L353.32959,73.7070312 L356.101074,73.7070312 L356.101074,82 Z M365.85498,82 L362.734375,82 L362.369141,80.4799805 L360.215332,80.4799805 L359.850098,82 L356.724121,82 L359.157227,73.7070312 L363.427246,73.7070312 L365.85498,82 Z M361.885742,78.503418 L361.300293,76.0595703 L361.278809,76.0595703 L360.687988,78.503418 L361.885742,78.503418 Z M371.720215,76.1132812 L369.969238,76.1132812 L369.969238,82 L366.999023,82 L366.999023,76.1132812 L365.253418,76.1132812 L365.253418,73.7070312 L371.720215,73.7070312 L371.720215,76.1132812 Z M375.608887,82 L372.638672,82 L372.638672,73.7070312 L375.608887,73.7070312 L375.608887,82 Z M386.18457,77.8535156 C386.18457,79.0781311 385.806807,80.0932577 385.05127,80.8989258 C384.199052,81.8084355 383.010262,82.2631836 381.484863,82.2631836 C379.955884,82.2631836 378.765304,81.8084355 377.913086,80.8989258 C377.157548,80.0932577 376.779785,79.0781311 376.779785,77.8535156 C376.779785,76.6289001 377.157548,75.6137736 377.913086,74.8081055 C378.765304,73.8985957 379.955884,73.4438477 381.484863,73.4438477 C383.010262,73.4438477 384.199052,73.8985957 385.05127,74.8081055 C385.806807,75.6137736 386.18457,76.6289001 386.18457,77.8535156 L386.18457,77.8535156 Z M383.112305,77.8535156 C383.112305,77.2949191 382.945802,76.8437517 382.612793,76.5 C382.301268,76.1777328 381.925295,76.0166016 381.484863,76.0166016 C381.03727,76.0166016 380.657716,76.1777328 380.346191,76.5 C380.013182,76.8437517 379.84668,77.2949191 379.84668,77.8535156 C379.84668,78.4121122 380.013182,78.8632795 380.346191,79.2070312 C380.657716,79.5292985 381.03727,79.6904297 381.484863,79.6904297 C381.925295,79.6904297 382.301268,79.5292985 382.612793,79.2070312 C382.945802,78.8632795 383.112305,78.4121122 383.112305,77.8535156 L383.112305,77.8535156 Z M395.46582,82 L392.431152,82 L390.083984,78.3369141 L390.083984,82 L387.3125,82 L387.3125,73.7070312 L390.352539,73.7070312 L392.694336,77.3701172 L392.694336,73.7070312 L395.46582,73.7070312 L395.46582,82 Z M405.219727,82 L402.099121,82 L401.733887,80.4799805 L399.580078,80.4799805 L399.214844,82 L396.088867,82 L398.521973,73.7070312 L402.791992,73.7070312 L405.219727,82 Z M401.250488,78.503418 L400.665039,76.0595703 L400.643555,76.0595703 L400.052734,78.503418 L401.250488,78.503418 Z M411.428711,82 L405.848145,82 L405.848145,73.7070312 L408.818359,73.7070312 L408.818359,79.6904297 L411.428711,79.6904297 L411.428711,82 Z M422.955078,77.8535156 C422.955078,79.0530659 422.60238,80.0234338 421.896973,80.7646484 C421.109208,81.5882203 419.98308,82 418.518555,82 L414.876953,82 L414.876953,73.7070312 L418.518555,73.7070312 C420.122729,73.7070312 421.304358,74.16536 422.063477,75.0820312 C422.657881,75.7981807 422.955078,76.7219996 422.955078,77.8535156 L422.955078,77.8535156 Z M419.882812,77.8535156 C419.882812,77.2805961 419.723472,76.8401708 419.404785,76.5322266 C419.114745,76.2529283 418.724449,76.1132812 418.233887,76.1132812 L417.847168,76.1132812 L417.847168,79.5883789 L418.233887,79.5883789 C418.617027,79.5883789 418.941079,79.506023 419.206055,79.3413086 C419.657229,79.0584296 419.882812,78.5625035 419.882812,77.8535156 L419.882812,77.8535156 Z M431.994629,82 L428.874023,82 L428.508789,80.4799805 L426.35498,80.4799805 L425.989746,82 L422.86377,82 L425.296875,73.7070312 L429.566895,73.7070312 L431.994629,82 Z M428.025391,78.503418 L427.439941,76.0595703 L427.418457,76.0595703 L426.827637,78.503418 L428.025391,78.503418 Z M437.859863,76.1132812 L436.108887,76.1132812 L436.108887,82 L433.138672,82 L433.138672,76.1132812 L431.393066,76.1132812 L431.393066,73.7070312 L437.859863,73.7070312 L437.859863,76.1132812 Z M441.748535,82 L438.77832,82 L438.77832,73.7070312 L441.748535,73.7070312 L441.748535,82 Z M451.454102,82 L448.419434,82 L446.072266,78.3369141 L446.072266,82 L443.300781,82 L443.300781,73.7070312 L446.34082,73.7070312 L448.682617,77.3701172 L448.682617,73.7070312 L451.454102,73.7070312 L451.454102,82 Z M461.933105,77.9072266 C461.933105,79.1927148 461.548181,80.2293255 460.77832,81.0170898 C459.965491,81.8478232 458.848314,82.2631836 457.426758,82.2631836 C455.922844,82.2631836 454.732264,81.8549846 453.85498,81.0385742 C453.009924,80.2472291 452.587402,79.203457 452.587402,77.9072266 C452.587402,76.5429619 453.009924,75.4615925 453.85498,74.6630859 C454.71436,73.8502564 455.894198,73.4438477 457.394531,73.4438477 C458.307622,73.4438477 459.055987,73.5888657 459.639648,73.8789062 C460.280602,74.2011735 460.817706,74.7382775 461.250977,75.4902344 L458.962891,76.6879883 C458.669269,76.1508762 458.185876,75.8823242 457.512695,75.8823242 C456.95768,75.8823242 456.514569,76.0622541 456.18335,76.4221191 C455.852131,76.7819842 455.686523,77.2734344 455.686523,77.8964844 C455.686523,78.4443387 455.836913,78.8937157 456.137695,79.2446289 C456.463543,79.6277688 456.918291,79.8193359 457.501953,79.8193359 C457.895835,79.8193359 458.237792,79.7235524 458.527832,79.5319824 C458.817873,79.3404125 458.962891,79.1175143 458.962891,78.8632812 L457.512695,78.8632812 L457.512695,77.1499023 L461.933105,77.1499023 L461.933105,77.9072266 Z M471.735352,79.4057617 C471.735352,80.3009485 471.411299,81.0063451 470.763184,81.5219727 C470.147295,82.0161158 469.341639,82.2631836 468.346191,82.2631836 C467.160964,82.2631836 466.043788,81.965986 464.994629,81.371582 L465.827148,79.1425781 C466.618494,79.6832709 467.293454,79.9536133 467.852051,79.9536133 C468.396324,79.9536133 468.668457,79.8515635 468.668457,79.6474609 C468.668457,79.4755851 468.57894,79.325196 468.399902,79.1962891 C468.174315,79.0387362 467.665857,78.7880877 466.874512,78.4443359 C465.853999,78.0003233 465.34375,77.239426 465.34375,76.1616211 C465.34375,75.298661 465.662432,74.6237004 466.299805,74.1367188 C466.90137,73.6748024 467.690913,73.4438477 468.668457,73.4438477 C469.638839,73.4438477 470.555497,73.6998672 471.418457,74.2119141 L470.69873,76.4677734 C470.064938,75.9915341 469.461591,75.753418 468.888672,75.753418 C468.527016,75.753418 468.346191,75.851887 468.346191,76.0488281 C468.346191,76.149089 468.421386,76.2493485 468.571777,76.3496094 C468.747234,76.4713548 469.13753,76.679035 469.742676,76.9726562 C470.476729,77.330731 470.990558,77.6852196 471.28418,78.0361328 C471.584962,78.3977883 471.735352,78.8543267 471.735352,79.4057617 L471.735352,79.4057617 Z M475.822754,82 L472.852539,82 L472.852539,73.7070312 L475.822754,73.7070312 L475.822754,82 Z M483.21875,76.1132812 L481.467773,76.1132812 L481.467773,82 L478.497559,82 L478.497559,76.1132812 L476.751953,76.1132812 L476.751953,73.7070312 L483.21875,73.7070312 L483.21875,76.1132812 Z M489.84668,82 L484.10498,82 L484.10498,73.7070312 L489.84668,73.7070312 L489.84668,76.0166016 L487.075195,76.0166016 L487.075195,76.784668 L489.594238,76.784668 L489.594238,78.8632812 L487.075195,78.8632812 L487.075195,79.6904297 L489.84668,79.6904297 L489.84668,82 Z" id="INTERNATIONAL-DATING"></path>
            </g>
        </g>
    </g>
</svg>