<?xml version="1.0" encoding="UTF-8"?>
<svg width="95px" height="8px" viewBox="0 0 95 8" version="1.1" xmlns="http://www.w3.org/2000/svg" xmlns:xlink="http://www.w3.org/1999/xlink">
    <!-- Generator: Sketch 43.1 (39012) - http://www.bohemiancoding.com/sketch -->
    <title>Shape</title>
    <desc>Created with Sketch.</desc>
    <defs></defs>
    <g id="Page-1" stroke="none" stroke-width="1" fill="none" fill-rule="evenodd">
        <g id="I-LoveSlavic_Landing" transform="translate(-615.000000, -614.000000)" fill="#ED2124">
            <g id="Group-18" transform="translate(479.000000, 586.000000)">
                <path d="M208.812441,34.0435007 C209.083126,34.0956208 209.351189,34.1823206 209.624496,34.1948494 C214.488957,34.4153576 219.354073,34.6233368 224.218535,34.8443461 C224.935554,34.8769212 225.649297,34.9616164 226.364351,35.0222561 C226.368938,35.0929189 226.374182,35.1635818 226.379425,35.2337435 C225.177401,35.3750691 223.976033,35.6301569 222.772698,35.6346673 C220.022593,35.6451916 217.272488,35.5183994 214.521727,35.4768036 C212.664948,35.4487389 210.807513,35.4712909 208.954665,35.4712909 C208.875361,35.1560645 208.832759,34.9851707 208.784258,34.7902214 C208.649244,34.7736833 208.525371,34.7456186 208.400843,34.7446163 C200.986177,34.6679396 193.571511,34.5586879 186.15619,34.5326278 C181.756415,34.517092 177.355985,34.630353 172.955555,34.6975078 C172.760242,34.7005147 172.567552,34.8172838 172.37355,34.8809304 C172.391901,34.9405679 172.410908,35.0002053 172.42926,35.0598427 L194.794508,35.0598427 C194.795819,35.1074524 194.79713,35.1550621 194.798441,35.203173 C194.407816,35.203173 194.017191,35.2016695 193.626566,35.203173 C180.573398,35.2588012 167.520231,35.2918774 154.467718,35.3845911 C150.712868,35.4111523 146.990133,35.2427642 143.267398,34.898972 C141.660985,34.7506302 140.030323,34.7541383 138.397038,34.6879858 C138.326254,34.3948102 138.269233,34.1036393 138.183374,33.817981 C137.99265,33.1885305 138.182719,32.889341 139.024267,32.8041447 C140.081445,32.6968976 141.154353,32.6813618 142.301322,32.6222255 C142.310498,32.4718791 142.322295,32.2854494 142.334093,32.0925048 C141.340489,31.9095833 140.391454,31.7682576 139.470602,31.5552668 C138.722777,31.3823684 137.982818,31.1633637 137.288083,30.8917378 C136.672652,30.6511835 135.916963,30.3860725 136.007409,29.7325666 C136.093268,29.1111346 136.86993,28.9387373 137.514855,28.8334948 C138.81519,28.6200028 140.13781,28.3749381 141.456497,28.3578988 C148.00602,28.2737048 154.556854,28.2757095 161.107033,28.216072 C167.737172,28.1554323 174.366,27.996065 180.996138,28.0000743 C184.948923,28.0025801 188.901707,28.2506517 192.855802,28.3629104 C197.30801,28.4892014 201.762184,28.5698874 206.214392,28.7031945 C208.700366,28.7778666 211.181752,28.9657997 213.668382,29.0199244 C216.339182,29.0775572 219.013915,29.0094002 221.684715,29.0524995 C223.036173,29.0740491 224.388942,29.1948275 225.731879,29.3266312 C226.192633,29.3717351 226.649454,29.5747028 226.423338,30.0798669 L213.771937,30.0798669 C213.771937,30.0843773 213.771282,30.0888877 213.770626,30.0933981 C217.875466,30.2241995 221.980961,30.3544998 226.156585,30.487807 C226.134957,30.6306361 226.130369,30.740389 226.101531,30.8466339 C225.980935,31.2826386 226.174937,31.4710728 226.789057,31.4690682 C227.799701,31.4650589 228.81821,31.3658303 229.789529,31.7507172 C231.285177,32.3440846 231.415604,33.0562256 230.064802,33.8259995 C229.221288,34.306607 228.329273,34.6133137 227.178371,34.5747248 C221.394368,34.3792744 215.606433,34.2514799 209.820463,34.0981266 C209.482271,34.0891058 209.146045,34.0620434 208.807853,34.0435007 C201.818549,33.8219902 194.831211,33.5383366 187.832732,33.8104637 C193.935264,33.9147039 200.037797,34.0119279 206.140985,34.0966231 C207.032345,34.109152 207.923048,34.0625446 208.812441,34.0435007 L208.812441,34.0435007 Z" id="Shape"></path>
            </g>
        </g>
    </g>
</svg>