<?xml version="1.0" encoding="UTF-8"?>
<svg width="6px" height="9px" viewBox="0 0 6 9" version="1.1" xmlns="http://www.w3.org/2000/svg" xmlns:xlink="http://www.w3.org/1999/xlink">
    <!-- Generator: Sketch 43.1 (39012) - http://www.bohemiancoding.com/sketch -->
    <title>Capa_1</title>
    <desc>Created with Sketch.</desc>
    <defs></defs>
    <g id="Page-1" stroke="none" stroke-width="1" fill="none" fill-rule="evenodd">
        <g id="I-LoveSlavic_Landing" transform="translate(-316.000000, -1059.000000)" fill="#7C7C7C">
            <g id="Group-14" transform="translate(204.000000, 915.000000)">
                <g id="Group-13" transform="translate(0.000000, 109.000000)">
                    <g id="location-pin" transform="translate(112.000000, 35.000000)">
                        <g id="Capa_1">
                            <path d="M3.00565161,0 C1.35855484,0 0.0185419355,1.33427409 0.0185419355,2.97429764 C0.0185419355,3.63484368 0.44216129,4.71176017 1.31353548,6.26660171 C1.92990968,7.36631692 2.53614194,8.28327623 2.5616129,8.32176231 L3.00565161,8.99194433 L3.44967097,8.32178158 C3.47516129,8.28327623 4.08143226,7.36633619 4.69772903,6.26662099 C5.56914194,4.71176017 5.99272258,3.63486296 5.99272258,2.97431692 C5.99274194,1.33427409 4.65272903,0 3.00565161,0 L3.00565161,0 Z M3.00565161,4.49597216 C2.15051613,4.49597216 1.45726452,3.80570878 1.45726452,2.95421627 C1.45726452,2.10272377 2.15051613,1.41246039 3.00565161,1.41246039 C3.8607871,1.41246039 4.55403871,2.10272377 4.55403871,2.95421627 C4.55403871,3.80570878 3.86076774,4.49597216 3.00565161,4.49597216 L3.00565161,4.49597216 Z" id="Shape"></path>
                        </g>
                    </g>
                </g>
            </g>
        </g>
    </g>
</svg>